<mxfile host="Electron" modified="2024-07-14T06:42:50.149Z" agent="Mozilla/5.0 (Windows NT 10.0; Win64; x64) AppleWebKit/537.36 (KHTML, like Gecko) draw.io/24.6.4 Chrome/124.0.6367.207 Electron/30.0.6 Safari/537.36" etag="Vzl1V49gPderQebmHZBk" version="24.6.4" type="device">
  <diagram name="Malaabak Usecase Diagram" id="7XVIc6Cqeh-DD4JDEn6v">
    <mxGraphModel dx="2069" dy="713" grid="1" gridSize="10" guides="1" tooltips="1" connect="1" arrows="1" fold="1" page="1" pageScale="1" pageWidth="850" pageHeight="1100" math="0" shadow="0">
      <root>
        <mxCell id="0" />
        <mxCell id="1" parent="0" />
        <mxCell id="_NaGhFu6bjK36gqBymML-1" value="" style="rounded=0;whiteSpace=wrap;html=1;" parent="1" vertex="1">
          <mxGeometry x="-10" y="10" width="830" height="820" as="geometry" />
        </mxCell>
        <mxCell id="_NaGhFu6bjK36gqBymML-2" value="sign up" style="ellipse;whiteSpace=wrap;html=1;" parent="1" vertex="1">
          <mxGeometry x="320" y="50" width="120" height="80" as="geometry" />
        </mxCell>
        <mxCell id="ap5bF3k_R6ETczgkQO4W-20" style="edgeStyle=orthogonalEdgeStyle;rounded=0;orthogonalLoop=1;jettySize=auto;html=1;exitX=1;exitY=0.3333333333333333;exitDx=0;exitDy=0;exitPerimeter=0;" edge="1" parent="1" source="ap5bF3k_R6ETczgkQO4W-1" target="ap5bF3k_R6ETczgkQO4W-7">
          <mxGeometry relative="1" as="geometry">
            <Array as="points">
              <mxPoint x="320" y="120" />
              <mxPoint x="320" y="200" />
            </Array>
          </mxGeometry>
        </mxCell>
        <mxCell id="ap5bF3k_R6ETczgkQO4W-22" style="edgeStyle=orthogonalEdgeStyle;rounded=0;orthogonalLoop=1;jettySize=auto;html=1;exitX=1;exitY=0.3333333333333333;exitDx=0;exitDy=0;exitPerimeter=0;entryX=0;entryY=0.5;entryDx=0;entryDy=0;" edge="1" parent="1" source="ap5bF3k_R6ETczgkQO4W-1" target="ap5bF3k_R6ETczgkQO4W-10">
          <mxGeometry relative="1" as="geometry">
            <Array as="points">
              <mxPoint x="10" y="130" />
              <mxPoint x="10" y="430" />
            </Array>
          </mxGeometry>
        </mxCell>
        <mxCell id="ap5bF3k_R6ETczgkQO4W-23" style="edgeStyle=orthogonalEdgeStyle;rounded=0;orthogonalLoop=1;jettySize=auto;html=1;exitX=1;exitY=0.3333333333333333;exitDx=0;exitDy=0;exitPerimeter=0;entryX=0;entryY=0.5;entryDx=0;entryDy=0;" edge="1" parent="1" source="ap5bF3k_R6ETczgkQO4W-1" target="ap5bF3k_R6ETczgkQO4W-11">
          <mxGeometry relative="1" as="geometry" />
        </mxCell>
        <mxCell id="ap5bF3k_R6ETczgkQO4W-24" style="edgeStyle=orthogonalEdgeStyle;rounded=0;orthogonalLoop=1;jettySize=auto;html=1;exitX=1;exitY=0.3333333333333333;exitDx=0;exitDy=0;exitPerimeter=0;" edge="1" parent="1" source="ap5bF3k_R6ETczgkQO4W-1" target="ap5bF3k_R6ETczgkQO4W-9">
          <mxGeometry relative="1" as="geometry">
            <Array as="points">
              <mxPoint x="240" y="130" />
              <mxPoint x="240" y="350" />
            </Array>
          </mxGeometry>
        </mxCell>
        <mxCell id="ap5bF3k_R6ETczgkQO4W-25" style="edgeStyle=orthogonalEdgeStyle;rounded=0;orthogonalLoop=1;jettySize=auto;html=1;exitX=1;exitY=0.3333333333333333;exitDx=0;exitDy=0;exitPerimeter=0;entryX=0;entryY=0.5;entryDx=0;entryDy=0;" edge="1" parent="1" source="ap5bF3k_R6ETczgkQO4W-1" target="ap5bF3k_R6ETczgkQO4W-8">
          <mxGeometry relative="1" as="geometry">
            <Array as="points">
              <mxPoint x="60" y="130" />
              <mxPoint x="60" y="250" />
            </Array>
          </mxGeometry>
        </mxCell>
        <mxCell id="ap5bF3k_R6ETczgkQO4W-1" value="Player (Customer)" style="shape=umlActor;verticalLabelPosition=bottom;verticalAlign=top;html=1;outlineConnect=0;" vertex="1" parent="1">
          <mxGeometry x="-70" y="110" width="30" height="60" as="geometry" />
        </mxCell>
        <mxCell id="ap5bF3k_R6ETczgkQO4W-27" style="edgeStyle=orthogonalEdgeStyle;rounded=0;orthogonalLoop=1;jettySize=auto;html=1;exitX=0;exitY=0.3333333333333333;exitDx=0;exitDy=0;exitPerimeter=0;entryX=1;entryY=0.5;entryDx=0;entryDy=0;" edge="1" parent="1" source="ap5bF3k_R6ETczgkQO4W-5" target="ap5bF3k_R6ETczgkQO4W-12">
          <mxGeometry relative="1" as="geometry">
            <Array as="points">
              <mxPoint x="800" y="310" />
              <mxPoint x="800" y="200" />
            </Array>
          </mxGeometry>
        </mxCell>
        <mxCell id="ap5bF3k_R6ETczgkQO4W-30" style="edgeStyle=orthogonalEdgeStyle;rounded=0;orthogonalLoop=1;jettySize=auto;html=1;exitX=0;exitY=0.3333333333333333;exitDx=0;exitDy=0;exitPerimeter=0;entryX=1;entryY=0.5;entryDx=0;entryDy=0;" edge="1" parent="1" source="ap5bF3k_R6ETczgkQO4W-5" target="ap5bF3k_R6ETczgkQO4W-15">
          <mxGeometry relative="1" as="geometry" />
        </mxCell>
        <mxCell id="ap5bF3k_R6ETczgkQO4W-32" style="edgeStyle=orthogonalEdgeStyle;rounded=0;orthogonalLoop=1;jettySize=auto;html=1;exitX=0;exitY=0.3333333333333333;exitDx=0;exitDy=0;exitPerimeter=0;" edge="1" parent="1" source="ap5bF3k_R6ETczgkQO4W-5" target="ap5bF3k_R6ETczgkQO4W-7">
          <mxGeometry relative="1" as="geometry">
            <Array as="points">
              <mxPoint x="750" y="310" />
              <mxPoint x="750" y="260" />
              <mxPoint x="410" y="260" />
            </Array>
          </mxGeometry>
        </mxCell>
        <mxCell id="ap5bF3k_R6ETczgkQO4W-46" style="edgeStyle=orthogonalEdgeStyle;rounded=0;orthogonalLoop=1;jettySize=auto;html=1;exitX=0;exitY=0.3333333333333333;exitDx=0;exitDy=0;exitPerimeter=0;entryX=1;entryY=0.5;entryDx=0;entryDy=0;" edge="1" parent="1" source="ap5bF3k_R6ETczgkQO4W-5" target="ap5bF3k_R6ETczgkQO4W-14">
          <mxGeometry relative="1" as="geometry">
            <Array as="points">
              <mxPoint x="750" y="310" />
              <mxPoint x="750" y="550" />
            </Array>
          </mxGeometry>
        </mxCell>
        <mxCell id="ap5bF3k_R6ETczgkQO4W-47" style="edgeStyle=orthogonalEdgeStyle;rounded=0;orthogonalLoop=1;jettySize=auto;html=1;exitX=0;exitY=0.3333333333333333;exitDx=0;exitDy=0;exitPerimeter=0;entryX=1;entryY=0.5;entryDx=0;entryDy=0;" edge="1" parent="1" source="ap5bF3k_R6ETczgkQO4W-5" target="ap5bF3k_R6ETczgkQO4W-13">
          <mxGeometry relative="1" as="geometry" />
        </mxCell>
        <mxCell id="ap5bF3k_R6ETczgkQO4W-5" value="Owner" style="shape=umlActor;verticalLabelPosition=bottom;verticalAlign=top;html=1;outlineConnect=0;" vertex="1" parent="1">
          <mxGeometry x="880" y="290" width="30" height="60" as="geometry" />
        </mxCell>
        <mxCell id="ap5bF3k_R6ETczgkQO4W-36" style="edgeStyle=orthogonalEdgeStyle;rounded=0;orthogonalLoop=1;jettySize=auto;html=1;exitX=0;exitY=0.3333333333333333;exitDx=0;exitDy=0;exitPerimeter=0;" edge="1" parent="1" source="ap5bF3k_R6ETczgkQO4W-6" target="ap5bF3k_R6ETczgkQO4W-34">
          <mxGeometry relative="1" as="geometry">
            <mxPoint x="730" y="155" as="sourcePoint" />
            <mxPoint x="380" y="465" as="targetPoint" />
            <Array as="points">
              <mxPoint x="730" y="140" />
              <mxPoint x="730" y="485" />
              <mxPoint x="380" y="485" />
            </Array>
          </mxGeometry>
        </mxCell>
        <mxCell id="ap5bF3k_R6ETczgkQO4W-45" style="edgeStyle=orthogonalEdgeStyle;rounded=0;orthogonalLoop=1;jettySize=auto;html=1;exitX=0;exitY=0.3333333333333333;exitDx=0;exitDy=0;exitPerimeter=0;" edge="1" parent="1" source="ap5bF3k_R6ETczgkQO4W-6" target="ap5bF3k_R6ETczgkQO4W-35">
          <mxGeometry relative="1" as="geometry">
            <Array as="points">
              <mxPoint x="860" y="140" />
              <mxPoint x="860" y="630" />
              <mxPoint x="380" y="630" />
            </Array>
          </mxGeometry>
        </mxCell>
        <mxCell id="ap5bF3k_R6ETczgkQO4W-6" value="Sys Admin" style="shape=umlActor;verticalLabelPosition=bottom;verticalAlign=top;html=1;outlineConnect=0;" vertex="1" parent="1">
          <mxGeometry x="880" y="120" width="30" height="60" as="geometry" />
        </mxCell>
        <mxCell id="ap5bF3k_R6ETczgkQO4W-7" value="Sign up" style="ellipse;whiteSpace=wrap;html=1;" vertex="1" parent="1">
          <mxGeometry x="320" y="160" width="120" height="80" as="geometry" />
        </mxCell>
        <mxCell id="ap5bF3k_R6ETczgkQO4W-8" value="reserve a field" style="ellipse;whiteSpace=wrap;html=1;" vertex="1" parent="1">
          <mxGeometry x="100" y="210" width="120" height="80" as="geometry" />
        </mxCell>
        <mxCell id="ap5bF3k_R6ETczgkQO4W-9" value="report an issue" style="ellipse;whiteSpace=wrap;html=1;" vertex="1" parent="1">
          <mxGeometry x="320" y="330" width="120" height="80" as="geometry" />
        </mxCell>
        <mxCell id="ap5bF3k_R6ETczgkQO4W-26" value="" style="edgeStyle=orthogonalEdgeStyle;rounded=0;orthogonalLoop=1;jettySize=auto;html=1;" edge="1" parent="1" source="ap5bF3k_R6ETczgkQO4W-10" target="ap5bF3k_R6ETczgkQO4W-8">
          <mxGeometry relative="1" as="geometry" />
        </mxCell>
        <mxCell id="ap5bF3k_R6ETczgkQO4W-10" value="search for a field" style="ellipse;whiteSpace=wrap;html=1;" vertex="1" parent="1">
          <mxGeometry x="100" y="390" width="120" height="80" as="geometry" />
        </mxCell>
        <mxCell id="ap5bF3k_R6ETczgkQO4W-11" value="cancel reservation" style="ellipse;whiteSpace=wrap;html=1;" vertex="1" parent="1">
          <mxGeometry x="110" y="620" width="120" height="80" as="geometry" />
        </mxCell>
        <mxCell id="ap5bF3k_R6ETczgkQO4W-12" value="Field Management" style="ellipse;whiteSpace=wrap;html=1;" vertex="1" parent="1">
          <mxGeometry x="530" y="160" width="120" height="80" as="geometry" />
        </mxCell>
        <mxCell id="ap5bF3k_R6ETczgkQO4W-15" value="view reservations history" style="ellipse;whiteSpace=wrap;html=1;" vertex="1" parent="1">
          <mxGeometry x="530" y="670" width="120" height="80" as="geometry" />
        </mxCell>
        <mxCell id="ap5bF3k_R6ETczgkQO4W-19" style="edgeStyle=orthogonalEdgeStyle;rounded=0;orthogonalLoop=1;jettySize=auto;html=1;exitX=1;exitY=0.3333333333333333;exitDx=0;exitDy=0;exitPerimeter=0;entryX=0.05;entryY=0.672;entryDx=0;entryDy=0;entryPerimeter=0;" edge="1" parent="1" source="ap5bF3k_R6ETczgkQO4W-1" target="_NaGhFu6bjK36gqBymML-2">
          <mxGeometry relative="1" as="geometry">
            <Array as="points">
              <mxPoint x="80" y="150" />
              <mxPoint x="290" y="150" />
              <mxPoint x="290" y="104" />
            </Array>
          </mxGeometry>
        </mxCell>
        <mxCell id="ap5bF3k_R6ETczgkQO4W-34" value="block users" style="ellipse;whiteSpace=wrap;html=1;" vertex="1" parent="1">
          <mxGeometry x="320" y="510" width="120" height="80" as="geometry" />
        </mxCell>
        <mxCell id="ap5bF3k_R6ETczgkQO4W-35" value="view issue reports by customer" style="ellipse;whiteSpace=wrap;html=1;" vertex="1" parent="1">
          <mxGeometry x="320" y="670" width="120" height="80" as="geometry" />
        </mxCell>
        <mxCell id="ap5bF3k_R6ETczgkQO4W-14" value="adding new organization" style="ellipse;whiteSpace=wrap;html=1;" vertex="1" parent="1">
          <mxGeometry x="530" y="510" width="120" height="80" as="geometry" />
        </mxCell>
        <mxCell id="ap5bF3k_R6ETczgkQO4W-13" value="reservation approvals/rejections" style="ellipse;whiteSpace=wrap;html=1;" vertex="1" parent="1">
          <mxGeometry x="530" y="330" width="120" height="80" as="geometry" />
        </mxCell>
        <mxCell id="ap5bF3k_R6ETczgkQO4W-48" style="edgeStyle=orthogonalEdgeStyle;rounded=0;orthogonalLoop=1;jettySize=auto;html=1;exitX=0;exitY=0.3333333333333333;exitDx=0;exitDy=0;exitPerimeter=0;entryX=0.5;entryY=0;entryDx=0;entryDy=0;" edge="1" parent="1" source="ap5bF3k_R6ETczgkQO4W-5" target="ap5bF3k_R6ETczgkQO4W-9">
          <mxGeometry relative="1" as="geometry">
            <Array as="points">
              <mxPoint x="380" y="310" />
            </Array>
          </mxGeometry>
        </mxCell>
      </root>
    </mxGraphModel>
  </diagram>
</mxfile>
